<?xml version="1.0" encoding="UTF-8"?>
<svg xmlns="http://www.w3.org/2000/svg" width="1000" height="720" viewBox="0 0 1000 720" font-family="sans-serif">

  <!-- Background -->
  <rect width="1000" height="720" fill="#f8f9fa"/>

  <!-- Title -->
  <text x="500" y="26" text-anchor="middle" font-size="17" font-weight="bold" fill="#2d3436">PiVideo — Wiring with LED Illumination (Advanced)</text>
  <text x="500" y="43" text-anchor="middle" font-size="10" fill="#636e72">LED wiring is optional — buttons work without it. LED circuit: 3.3V (Pin 1 or 17) → LED+ · LED− → GND. LEDs are always on. No software changes required.</text>
  <text x="500" y="57" text-anchor="middle" font-size="10" fill="#636e72">Note: the 150 Ω resistors are only needed for LED switches WITHOUT a built-in resistor. The Sparkfun and Adafruit metal pushbuttons in the README have one built in — omit the resistors for those.</text>

  <!-- ══════════════════════════════════════════════════════════ -->
  <!-- Raspberry Pi Board                                         -->
  <!-- ══════════════════════════════════════════════════════════ -->
  <rect x="40" y="68" width="195" height="470" rx="12" fill="#1a7a3c" stroke="#145a2e" stroke-width="2"/>
  <text x="137" y="86" text-anchor="middle" font-size="10" font-weight="bold" fill="#a8f0c0">Raspberry Pi</text>
  <rect x="92" y="97" width="72" height="432" rx="3" fill="#1a1a2e" stroke="#0d0d1a" stroke-width="1"/>

  <!-- Row 1: Pin 1 (3V3) square, Pin 2 (5V)  y=107 -->
  <rect x="106" y="101" width="12" height="12" rx="1" fill="#e74c3c" stroke="white" stroke-width="1"/>
  <circle cx="148" cy="107" r="5" fill="#e74c3c"/>
  <!-- Pin 1 marker -->
  <text x="88" y="112" text-anchor="end" font-size="8" fill="#e74c3c" font-weight="bold">Pin 1 ▸</text>

  <!-- Row 2: Pin 3, Pin 4 (5V)  y=128 -->
  <circle cx="112" cy="128" r="5" fill="#95a5a6"/>
  <circle cx="148" cy="128" r="5" fill="#e74c3c"/>

  <!-- Row 3: Pin 5, Pin 6 (GND)  y=149 -->
  <circle cx="112" cy="149" r="5" fill="#95a5a6"/>
  <circle cx="148" cy="149" r="5" fill="#2d3436"/>

  <!-- Row 4: Pin 7 (GPIO4), Pin 8  y=170 -->
  <circle cx="112" cy="170" r="6" fill="#27ae60" stroke="white" stroke-width="1.5"/>
  <circle cx="148" cy="170" r="5" fill="#95a5a6"/>
  <text x="88" y="174" text-anchor="end" font-size="9" fill="#b2bec3">7</text>

  <!-- Row 5: Pin 9 (GND), Pin 10  y=191 -->
  <circle cx="112" cy="191" r="5" fill="#2d3436"/>
  <circle cx="148" cy="191" r="5" fill="#95a5a6"/>

  <!-- Row 6: Pin 11 (GPIO17), Pin 12  y=212 -->
  <circle cx="112" cy="212" r="6" fill="#27ae60" stroke="white" stroke-width="1.5"/>
  <circle cx="148" cy="212" r="5" fill="#95a5a6"/>
  <text x="88" y="216" text-anchor="end" font-size="9" fill="#b2bec3">11</text>

  <!-- Row 7: Pin 13 (GPIO27), Pin 14 (GND)  y=233 -->
  <circle cx="112" cy="233" r="6" fill="#27ae60" stroke="white" stroke-width="1.5"/>
  <circle cx="148" cy="233" r="5" fill="#2d3436"/>
  <text x="88" y="237" text-anchor="end" font-size="9" fill="#b2bec3">13</text>
  <text x="174" y="237" font-size="9" fill="#b2bec3">14</text>

  <!-- Row 8: Pin 15 (GPIO22), Pin 16 (GPIO23)  y=254 -->
  <circle cx="112" cy="254" r="6" fill="#27ae60" stroke="white" stroke-width="1.5"/>
  <circle cx="148" cy="254" r="6" fill="#27ae60" stroke="white" stroke-width="1.5"/>
  <text x="88" y="258" text-anchor="end" font-size="9" fill="#b2bec3">15</text>
  <text x="174" y="258" font-size="9" fill="#b2bec3">16</text>

  <!-- Row 9: Pin 17 (3V3), Pin 18 (GPIO24)  y=275 -->
  <circle cx="112" cy="275" r="5" fill="#e74c3c"/>
  <circle cx="148" cy="275" r="6" fill="#27ae60" stroke="white" stroke-width="1.5"/>
  <text x="174" y="279" font-size="9" fill="#b2bec3">18</text>

  <!-- Row 10: Pin 19, Pin 20 (GND)  y=296 -->
  <circle cx="112" cy="296" r="5" fill="#95a5a6"/>
  <circle cx="148" cy="296" r="5" fill="#2d3436"/>

  <!-- Row 11: Pin 21, Pin 22 (GPIO25)  y=317 -->
  <circle cx="112" cy="317" r="5" fill="#95a5a6"/>
  <circle cx="148" cy="317" r="6" fill="#27ae60" stroke="white" stroke-width="1.5"/>
  <text x="174" y="321" font-size="9" fill="#b2bec3">22</text>

  <!-- Rows 12–20: other pins -->
  <circle cx="112" cy="338" r="5" fill="#95a5a6"/><circle cx="148" cy="338" r="5" fill="#95a5a6"/>
  <circle cx="112" cy="359" r="5" fill="#2d3436"/><circle cx="148" cy="359" r="5" fill="#95a5a6"/>
  <circle cx="112" cy="380" r="5" fill="#95a5a6"/><circle cx="148" cy="380" r="5" fill="#95a5a6"/>
  <circle cx="112" cy="401" r="5" fill="#95a5a6"/><circle cx="148" cy="401" r="5" fill="#2d3436"/>
  <circle cx="112" cy="422" r="5" fill="#95a5a6"/><circle cx="148" cy="422" r="5" fill="#95a5a6"/>
  <circle cx="112" cy="443" r="5" fill="#95a5a6"/><circle cx="148" cy="443" r="5" fill="#95a5a6"/>
  <circle cx="112" cy="464" r="5" fill="#95a5a6"/><circle cx="148" cy="464" r="5" fill="#2d3436"/>
  <circle cx="112" cy="485" r="5" fill="#95a5a6"/><circle cx="148" cy="485" r="5" fill="#95a5a6"/>
  <circle cx="112" cy="506" r="5" fill="#95a5a6"/><circle cx="148" cy="506" r="5" fill="#95a5a6"/>
  <circle cx="112" cy="527" r="5" fill="#2d3436"/><circle cx="148" cy="527" r="5" fill="#95a5a6"/>
  <text x="137" y="556" text-anchor="middle" font-size="9" fill="#a8f0c0">40-pin GPIO</text>

  <!-- ══════════════════════════════════════════════════════════ -->
  <!-- Signal wires: GPIO pin → board right edge (x=235)         -->
  <!-- ══════════════════════════════════════════════════════════ -->

  <!-- GPIO 4  (pin 7, y=170) red -->
  <line x1="118" y1="170" x2="235" y2="170" stroke="#e63946" stroke-width="2"/>
  <!-- GPIO 17 (pin 11, y=212) blue -->
  <line x1="118" y1="212" x2="235" y2="212" stroke="#4895ef" stroke-width="2"/>
  <!-- GPIO 27 (pin 13, y=233) teal -->
  <line x1="118" y1="233" x2="235" y2="233" stroke="#06d6a0" stroke-width="2"/>
  <!-- GPIO 22 (pin 15, y=254) yellow -->
  <line x1="118" y1="254" x2="235" y2="254" stroke="#ffd166" stroke-width="2"/>
  <!-- GPIO 23 (pin 16, y=254 right col) orange — route down 13px to avoid overlap -->
  <polyline points="154,254 162,254 162,267 235,267" fill="none" stroke="#f4a261" stroke-width="2"/>
  <!-- GPIO 24 (pin 18, y=275 right col) cyan -->
  <line x1="154" y1="275" x2="235" y2="275" stroke="#90e0ef" stroke-width="2"/>
  <!-- GPIO 25 (pin 22, y=317 right col) purple -->
  <line x1="154" y1="317" x2="235" y2="317" stroke="#c77dff" stroke-width="2"/>

  <!-- Wire exit labels -->
  <text x="239" y="167" font-size="9" fill="#e63946">GPIO 4</text>
  <text x="239" y="209" font-size="9" fill="#4895ef">GPIO 17</text>
  <text x="239" y="230" font-size="9" fill="#06d6a0">GPIO 27</text>
  <text x="239" y="251" font-size="9" fill="#ffd166">GPIO 22</text>
  <text x="239" y="264" font-size="9" fill="#f4a261">GPIO 23</text>
  <text x="239" y="272" font-size="9" fill="#90e0ef">GPIO 24</text>
  <text x="239" y="314" font-size="9" fill="#c77dff">GPIO 25</text>

  <!-- GND source wire: Pin 14 (right col y=233) → top of GND bus -->
  <path d="M 154,233 C 480,233 480,120 785,120" fill="none" stroke="#2d3436" stroke-width="1.5" stroke-dasharray="5,3"/>
  <text x="239" y="244" font-size="9" fill="#636e72">GND (Pin 14)</text>

  <!-- ══════════════════════════════════════════════════════════ -->
  <!-- Signal bezier curves: board exit → button left terminal   -->
  <!-- Button signal y = center − 13                             -->
  <!-- ══════════════════════════════════════════════════════════ -->

  <!-- GPIO 4  → Button 1 (signal y=147) -->
  <path d="M 235,170 C 365,170 365,147 490,147" fill="none" stroke="#e63946" stroke-width="2"/>
  <!-- GPIO 17 → Button 2 (signal y=227) -->
  <path d="M 235,212 C 365,212 365,227 490,227" fill="none" stroke="#4895ef" stroke-width="2"/>
  <!-- GPIO 27 → Button 3 (signal y=307) -->
  <path d="M 235,233 C 365,233 365,307 490,307" fill="none" stroke="#06d6a0" stroke-width="2"/>
  <!-- GPIO 22 → Button 4 (signal y=387) -->
  <path d="M 235,254 C 365,254 365,387 490,387" fill="none" stroke="#ffd166" stroke-width="2"/>
  <!-- GPIO 23 → Button 5 (signal y=467) -->
  <path d="M 235,267 C 365,267 365,467 490,467" fill="none" stroke="#f4a261" stroke-width="2"/>
  <!-- GPIO 24 → Button 6 (signal y=547) -->
  <path d="M 235,275 C 365,275 365,547 490,547" fill="none" stroke="#90e0ef" stroke-width="2"/>
  <!-- GPIO 25 → Button 7 (signal y=622) -->
  <path d="M 235,317 C 365,317 365,622 490,622" fill="none" stroke="#c77dff" stroke-width="2"/>

  <!-- ══════════════════════════════════════════════════════════ -->
  <!-- Button boxes                                               -->
  <!-- x=490, width=150. center values: 160,240,320,400,480,560,635 -->
  <!-- rect_y = center-33.  height=66.  divider at y=center.    -->
  <!-- Switch terminal (left,  y=center-13): signal wire arrives -->
  <!-- GND terminal    (right, y=center):    switch COM + LED−   -->
  <!-- LED+ terminal   (right, y=center+17): 3.3V via resistor  -->
  <!-- ══════════════════════════════════════════════════════════ -->

  <!-- Button 1  center=160 -->
  <rect x="490" y="127" width="150" height="66" rx="4" fill="#f5f5f5" stroke="#555" stroke-width="1.5"/>
  <line x1="490" y1="160" x2="640" y2="160" stroke="#bbb" stroke-width="1"/>
  <text x="565" y="142" text-anchor="middle" font-size="10" font-weight="bold" fill="#2d3436">Button 1</text>
  <text x="565" y="154" text-anchor="middle" font-size="9" fill="#636e72">GPIO 4  (Pin 7)</text>
  <text x="494" y="173" font-size="8" fill="#888">LED</text>
  <circle cx="490" cy="147" r="4" fill="#e63946"/>
  <circle cx="640" cy="160" r="3.5" fill="#2d3436"/>
  <circle cx="640" cy="177" r="3.5" fill="#e74c3c"/>

  <!-- Button 2  center=240 -->
  <rect x="490" y="207" width="150" height="66" rx="4" fill="#f5f5f5" stroke="#555" stroke-width="1.5"/>
  <line x1="490" y1="240" x2="640" y2="240" stroke="#bbb" stroke-width="1"/>
  <text x="565" y="222" text-anchor="middle" font-size="10" font-weight="bold" fill="#2d3436">Button 2</text>
  <text x="565" y="234" text-anchor="middle" font-size="9" fill="#636e72">GPIO 17  (Pin 11)</text>
  <text x="494" y="253" font-size="8" fill="#888">LED</text>
  <circle cx="490" cy="227" r="4" fill="#4895ef"/>
  <circle cx="640" cy="240" r="3.5" fill="#2d3436"/>
  <circle cx="640" cy="257" r="3.5" fill="#e74c3c"/>

  <!-- Button 3  center=320 -->
  <rect x="490" y="287" width="150" height="66" rx="4" fill="#f5f5f5" stroke="#555" stroke-width="1.5"/>
  <line x1="490" y1="320" x2="640" y2="320" stroke="#bbb" stroke-width="1"/>
  <text x="565" y="302" text-anchor="middle" font-size="10" font-weight="bold" fill="#2d3436">Button 3</text>
  <text x="565" y="314" text-anchor="middle" font-size="9" fill="#636e72">GPIO 27  (Pin 13)</text>
  <text x="494" y="333" font-size="8" fill="#888">LED</text>
  <circle cx="490" cy="307" r="4" fill="#06d6a0"/>
  <circle cx="640" cy="320" r="3.5" fill="#2d3436"/>
  <circle cx="640" cy="337" r="3.5" fill="#e74c3c"/>

  <!-- Button 4  center=400 -->
  <rect x="490" y="367" width="150" height="66" rx="4" fill="#f5f5f5" stroke="#555" stroke-width="1.5"/>
  <line x1="490" y1="400" x2="640" y2="400" stroke="#bbb" stroke-width="1"/>
  <text x="565" y="382" text-anchor="middle" font-size="10" font-weight="bold" fill="#2d3436">Button 4</text>
  <text x="565" y="394" text-anchor="middle" font-size="9" fill="#636e72">GPIO 22  (Pin 15)</text>
  <text x="494" y="413" font-size="8" fill="#888">LED</text>
  <circle cx="490" cy="387" r="4" fill="#ffd166"/>
  <circle cx="640" cy="400" r="3.5" fill="#2d3436"/>
  <circle cx="640" cy="417" r="3.5" fill="#e74c3c"/>

  <!-- Button 5  center=480 -->
  <rect x="490" y="447" width="150" height="66" rx="4" fill="#f5f5f5" stroke="#555" stroke-width="1.5"/>
  <line x1="490" y1="480" x2="640" y2="480" stroke="#bbb" stroke-width="1"/>
  <text x="565" y="462" text-anchor="middle" font-size="10" font-weight="bold" fill="#2d3436">Button 5</text>
  <text x="565" y="474" text-anchor="middle" font-size="9" fill="#636e72">GPIO 23  (Pin 16)</text>
  <text x="494" y="493" font-size="8" fill="#888">LED</text>
  <circle cx="490" cy="467" r="4" fill="#f4a261"/>
  <circle cx="640" cy="480" r="3.5" fill="#2d3436"/>
  <circle cx="640" cy="497" r="3.5" fill="#e74c3c"/>

  <!-- Button 6  center=560 -->
  <rect x="490" y="527" width="150" height="66" rx="4" fill="#f5f5f5" stroke="#555" stroke-width="1.5"/>
  <line x1="490" y1="560" x2="640" y2="560" stroke="#bbb" stroke-width="1"/>
  <text x="565" y="542" text-anchor="middle" font-size="10" font-weight="bold" fill="#2d3436">Button 6</text>
  <text x="565" y="554" text-anchor="middle" font-size="9" fill="#636e72">GPIO 24  (Pin 18)</text>
  <text x="494" y="573" font-size="8" fill="#888">LED</text>
  <circle cx="490" cy="547" r="4" fill="#90e0ef"/>
  <circle cx="640" cy="560" r="3.5" fill="#2d3436"/>
  <circle cx="640" cy="577" r="3.5" fill="#e74c3c"/>

  <!-- Button 7  center=635 -->
  <rect x="490" y="602" width="150" height="66" rx="4" fill="#f5f5f5" stroke="#555" stroke-width="1.5"/>
  <line x1="490" y1="635" x2="640" y2="635" stroke="#bbb" stroke-width="1"/>
  <text x="565" y="617" text-anchor="middle" font-size="10" font-weight="bold" fill="#2d3436">Button 7</text>
  <text x="565" y="629" text-anchor="middle" font-size="9" fill="#636e72">GPIO 25  (Pin 22)</text>
  <text x="494" y="648" font-size="8" fill="#888">LED</text>
  <circle cx="490" cy="622" r="4" fill="#c77dff"/>
  <circle cx="640" cy="635" r="3.5" fill="#2d3436"/>
  <circle cx="640" cy="652" r="3.5" fill="#e74c3c"/>

  <!-- ══════════════════════════════════════════════════════════ -->
  <!-- GND Bus  x=785, y=120–668 (dashed black)                  -->
  <!-- ══════════════════════════════════════════════════════════ -->

  <!-- GND symbol and label -->
  <text x="785" y="89" text-anchor="middle" font-size="10" font-weight="bold" fill="#2d3436">GND</text>
  <line x1="773" y1="93"  x2="797" y2="93"  stroke="#2d3436" stroke-width="2"/>
  <line x1="777" y1="97"  x2="793" y2="97"  stroke="#2d3436" stroke-width="2"/>
  <line x1="781" y1="101" x2="789" y2="101" stroke="#2d3436" stroke-width="2"/>
  <line x1="785" y1="101" x2="785" y2="120" stroke="#2d3436" stroke-width="1.5" stroke-dasharray="3,2"/>

  <!-- Vertical GND bus -->
  <line x1="785" y1="120" x2="785" y2="668" stroke="#2d3436" stroke-width="2.5" stroke-dasharray="6,3"/>

  <!-- GND wires: button right (x=640, y=center) → GND bus (x=785) -->
  <!-- These cover both switch COM and LED− -->
  <line x1="640" y1="160" x2="785" y2="160" stroke="#2d3436" stroke-width="1.5" stroke-dasharray="4,3"/>
  <line x1="640" y1="240" x2="785" y2="240" stroke="#2d3436" stroke-width="1.5" stroke-dasharray="4,3"/>
  <line x1="640" y1="320" x2="785" y2="320" stroke="#2d3436" stroke-width="1.5" stroke-dasharray="4,3"/>
  <line x1="640" y1="400" x2="785" y2="400" stroke="#2d3436" stroke-width="1.5" stroke-dasharray="4,3"/>
  <line x1="640" y1="480" x2="785" y2="480" stroke="#2d3436" stroke-width="1.5" stroke-dasharray="4,3"/>
  <line x1="640" y1="560" x2="785" y2="560" stroke="#2d3436" stroke-width="1.5" stroke-dasharray="4,3"/>
  <line x1="640" y1="635" x2="785" y2="635" stroke="#2d3436" stroke-width="1.5" stroke-dasharray="4,3"/>

  <!-- Junction dots: GND bus at switch COM / LED− points -->
  <circle cx="785" cy="160" r="3.5" fill="#2d3436"/>
  <circle cx="785" cy="240" r="3.5" fill="#2d3436"/>
  <circle cx="785" cy="320" r="3.5" fill="#2d3436"/>
  <circle cx="785" cy="400" r="3.5" fill="#2d3436"/>
  <circle cx="785" cy="480" r="3.5" fill="#2d3436"/>
  <circle cx="785" cy="560" r="3.5" fill="#2d3436"/>
  <circle cx="785" cy="635" r="3.5" fill="#2d3436"/>

  <!-- ══════════════════════════════════════════════════════════ -->
  <!-- 3.3V Bus  x=920, y=75–668 (solid red)                     -->
  <!-- ══════════════════════════════════════════════════════════ -->

  <!-- 3.3V power symbol (upward arrow) and label -->
  <polygon points="920,67 913,80 927,80" fill="#e74c3c"/>
  <text x="920" y="93" text-anchor="middle" font-size="10" font-weight="bold" fill="#e74c3c">3.3V</text>
  <text x="920" y="106" text-anchor="middle" font-size="8" fill="#e74c3c">(Pin 1 or 17)</text>
  <line x1="920" y1="108" x2="920" y2="120" stroke="#e74c3c" stroke-width="1.5"/>

  <!-- Vertical 3.3V bus -->
  <line x1="920" y1="120" x2="920" y2="668" stroke="#e74c3c" stroke-width="2.5"/>

  <!-- ══════════════════════════════════════════════════════════ -->
  <!-- LED+ wires: button right (x=640, y=center+17)             -->
  <!--   → resistor (x=855–875) → 3.3V bus (x=920)              -->
  <!-- LED+ wires cross GND bus at x=785 — NO junction dot       -->
  <!-- ══════════════════════════════════════════════════════════ -->

  <!-- Helper: wire segment from button to resistor left edge -->
  <!-- Resistor box: x=855–875, height=10, centered on y      -->
  <!-- Segment from resistor right to 3.3V bus                -->

  <!-- Button 1  LED+ y=177 -->
  <line x1="640" y1="177" x2="855" y2="177" stroke="#e74c3c" stroke-width="1.5"/>
  <rect x="855" y="172" width="20" height="10" rx="2" fill="#f8f9fa" stroke="#e74c3c" stroke-width="1.5"/>
  <line x1="875" y1="177" x2="920" y2="177" stroke="#e74c3c" stroke-width="1.5"/>
  <text x="865" y="169" text-anchor="middle" font-size="8" fill="#e74c3c">150Ω</text>

  <!-- Button 2  LED+ y=257 -->
  <line x1="640" y1="257" x2="855" y2="257" stroke="#e74c3c" stroke-width="1.5"/>
  <rect x="855" y="252" width="20" height="10" rx="2" fill="#f8f9fa" stroke="#e74c3c" stroke-width="1.5"/>
  <line x1="875" y1="257" x2="920" y2="257" stroke="#e74c3c" stroke-width="1.5"/>
  <text x="865" y="249" text-anchor="middle" font-size="8" fill="#e74c3c">150Ω</text>

  <!-- Button 3  LED+ y=337 -->
  <line x1="640" y1="337" x2="855" y2="337" stroke="#e74c3c" stroke-width="1.5"/>
  <rect x="855" y="332" width="20" height="10" rx="2" fill="#f8f9fa" stroke="#e74c3c" stroke-width="1.5"/>
  <line x1="875" y1="337" x2="920" y2="337" stroke="#e74c3c" stroke-width="1.5"/>
  <text x="865" y="329" text-anchor="middle" font-size="8" fill="#e74c3c">150Ω</text>

  <!-- Button 4  LED+ y=417 -->
  <line x1="640" y1="417" x2="855" y2="417" stroke="#e74c3c" stroke-width="1.5"/>
  <rect x="855" y="412" width="20" height="10" rx="2" fill="#f8f9fa" stroke="#e74c3c" stroke-width="1.5"/>
  <line x1="875" y1="417" x2="920" y2="417" stroke="#e74c3c" stroke-width="1.5"/>
  <text x="865" y="409" text-anchor="middle" font-size="8" fill="#e74c3c">150Ω</text>

  <!-- Button 5  LED+ y=497 -->
  <line x1="640" y1="497" x2="855" y2="497" stroke="#e74c3c" stroke-width="1.5"/>
  <rect x="855" y="492" width="20" height="10" rx="2" fill="#f8f9fa" stroke="#e74c3c" stroke-width="1.5"/>
  <line x1="875" y1="497" x2="920" y2="497" stroke="#e74c3c" stroke-width="1.5"/>
  <text x="865" y="489" text-anchor="middle" font-size="8" fill="#e74c3c">150Ω</text>

  <!-- Button 6  LED+ y=577 -->
  <line x1="640" y1="577" x2="855" y2="577" stroke="#e74c3c" stroke-width="1.5"/>
  <rect x="855" y="572" width="20" height="10" rx="2" fill="#f8f9fa" stroke="#e74c3c" stroke-width="1.5"/>
  <line x1="875" y1="577" x2="920" y2="577" stroke="#e74c3c" stroke-width="1.5"/>
  <text x="865" y="569" text-anchor="middle" font-size="8" fill="#e74c3c">150Ω</text>

  <!-- Button 7  LED+ y=652 -->
  <line x1="640" y1="652" x2="855" y2="652" stroke="#e74c3c" stroke-width="1.5"/>
  <rect x="855" y="647" width="20" height="10" rx="2" fill="#f8f9fa" stroke="#e74c3c" stroke-width="1.5"/>
  <line x1="875" y1="652" x2="920" y2="652" stroke="#e74c3c" stroke-width="1.5"/>
  <text x="865" y="644" text-anchor="middle" font-size="8" fill="#e74c3c">150Ω</text>

  <!-- Junction dots: 3.3V bus at each LED+ connection -->
  <circle cx="920" cy="177" r="3.5" fill="#e74c3c"/>
  <circle cx="920" cy="257" r="3.5" fill="#e74c3c"/>
  <circle cx="920" cy="337" r="3.5" fill="#e74c3c"/>
  <circle cx="920" cy="417" r="3.5" fill="#e74c3c"/>
  <circle cx="920" cy="497" r="3.5" fill="#e74c3c"/>
  <circle cx="920" cy="577" r="3.5" fill="#e74c3c"/>
  <circle cx="920" cy="652" r="3.5" fill="#e74c3c"/>

  <!-- Section labels -->
  <text x="565" y="115" text-anchor="middle" font-size="11" font-weight="bold" fill="#636e72">Push Buttons</text>

  <!-- GND "shared bus" label rotated -->
  <text x="798" y="400" font-size="9" fill="#636e72" transform="rotate(90,798,400)">← GND bus (shared)</text>

  <!-- ══════════════════════════════════════════════════════════ -->
  <!-- Legend                                                     -->
  <!-- ══════════════════════════════════════════════════════════ -->
  <rect x="40" y="680" width="920" height="34" rx="6" fill="#ecf0f1" stroke="#bdc3c7" stroke-width="1"/>

  <circle cx="62" cy="697" r="5.5" fill="#27ae60" stroke="white" stroke-width="1.5"/>
  <text x="73" y="701" font-size="10" fill="#2d3436">GPIO in use</text>

  <circle cx="165" cy="697" r="5" fill="#2d3436"/>
  <text x="175" y="701" font-size="10" fill="#2d3436">GND</text>

  <circle cx="225" cy="697" r="5" fill="#e74c3c"/>
  <text x="235" y="701" font-size="10" fill="#2d3436">Power (3.3V/5V)</text>

  <line x1="348" y1="697" x2="375" y2="697" stroke="#2d3436" stroke-width="2" stroke-dasharray="5,3"/>
  <text x="380" y="701" font-size="10" fill="#2d3436">GND bus / switch COM + LED−</text>

  <line x1="570" y1="697" x2="600" y2="697" stroke="#e74c3c" stroke-width="1.5"/>
  <rect x="600" y="692" width="18" height="10" rx="2" fill="#f8f9fa" stroke="#e74c3c" stroke-width="1.5"/>
  <line x1="618" y1="697" x2="640" y2="697" stroke="#e74c3c" stroke-width="1.5"/>
  <text x="645" y="701" font-size="10" fill="#2d3436">150Ω resistor → LED+ (always on)</text>

</svg>
